# xmcd CD database file
#
# Track frame offsets:
#	150
#	17915
#	37332
#	57356
#	74984
#	93966
#	111179
#	132484
#	148787
#	168198
#	183188
#	207342
#	224627
#	240952
#
# Disc length: 3455 seconds
#
# Revision: 0
# Processed by: cddbd v1.4PL0 Copyright (c) Steve Scherf et al.
# Submitted via: CDex 1.50beta8
#
DISCID=db0d7d0e
DTITLE=Fred Blondin - Mordre la poussière
DYEAR=2003
DGENRE=Blues
TTITLE0=Pour garder ton amour
TTITLE1=J' voudrais que ca change
TTITLE2=?
TTITLE3=24 heures
TTITLE4=Donner
TTITLE5=Retiens moi
TTITLE6=J'ai vu ta mer
TTITLE7=Quelques minutes
TTITLE8=Il faut convaincre
TTITLE9=Mordre la poussière
TTITLE10=Pour un p'titooi
TTITLE11=Ou sont nos amours
TTITLE12=Comme une prière
TTITLE13=Le café du monde
EXTD=YEAR: 2003
EXTT0=
EXTT1=
EXTT2=
EXTT3=
EXTT4=
EXTT5=
EXTT6=
EXTT7=
EXTT8=
EXTT9=
EXTT10=
EXTT11=
EXTT12=
EXTT13=
PLAYORDER=
